<svg xmlns="http://www.w3.org/2000/svg" xmlns:xlink="http://www.w3.org/1999/xlink" width="500" zoomAndPan="magnify" viewBox="0 0 375 374.999991" height="500" preserveAspectRatio="xMidYMid meet" version="1.0"><defs><g/><clipPath id="id1"><path d="M 252 220 L 283.28125 220 L 283.28125 239 L 252 239 Z M 252 220 " clip-rule="nonzero"/></clipPath><clipPath id="id2"><path d="M 204 269 L 242 269 L 242 281.472656 L 204 281.472656 Z M 204 269 " clip-rule="nonzero"/></clipPath><clipPath id="id3"><path d="M 92.03125 93.222656 L 272 93.222656 L 272 273 L 92.03125 273 Z M 92.03125 93.222656 " clip-rule="nonzero"/></clipPath></defs><rect x="-37.5" width="450" fill="#ffffff" y="-37.499999" height="449.999989" fill-opacity="1"/><rect x="-37.5" width="450" fill="#212222" y="-37.499999" height="449.999989" fill-opacity="1"/><rect x="-37.5" width="450" fill="#ffffff" y="-37.499999" height="449.999989" fill-opacity="1"/><rect x="-37.5" width="450" fill="#212222" y="-37.499999" height="449.999989" fill-opacity="1"/><path fill="#ceaa72" d="M 265.40625 216.464844 C 258.800781 232.9375 247.125 247.332031 232.378906 257.273438 C 228.675781 259.734375 224.8125 261.953125 220.816406 263.886719 C 216.792969 265.792969 212.632812 267.382812 208.386719 268.714844 C 204.136719 270.011719 199.777344 270.957031 195.382812 271.644531 C 190.976562 272.289062 186.53125 272.574219 182.085938 272.628906 L 182.085938 271.675781 C 186.492188 271.621094 190.886719 271.34375 195.246094 270.699219 C 199.59375 270.019531 203.902344 269.089844 208.109375 267.804688 C 212.308594 266.484375 216.425781 264.914062 220.402344 263.03125 C 224.359375 261.109375 228.183594 258.925781 231.839844 256.488281 C 246.421875 246.652344 257.972656 232.40625 264.511719 216.105469 Z M 265.40625 216.464844 " fill-opacity="1" fill-rule="nonzero"/><path fill="#ceaa72" d="M 237.742188 224.902344 C 237.742188 224.902344 237.628906 225.324219 237.453125 225.976562 C 237.269531 226.625 237.054688 227.539062 236.777344 228.484375 C 236.484375 229.429688 236.171875 230.414062 235.910156 231.246094 C 235.652344 232.105469 235.382812 232.765625 235.28125 233.136719 C 233.804688 238.242188 232.246094 243.632812 230.238281 249.167969 C 229.21875 251.980469 228.070312 254.796875 226.796875 257.65625 C 226.597656 258.078125 226.421875 258.503906 226.246094 258.941406 L 225.953125 259.6875 C 225.871094 259.886719 225.832031 260.117188 226.097656 260.21875 C 226.214844 260.269531 226.351562 260.21875 226.46875 260.15625 C 226.980469 259.878906 227.316406 259.316406 227.648438 258.878906 C 228.015625 258.417969 228.335938 257.902344 228.660156 257.410156 C 232.023438 252.273438 235.128906 246.953125 236.960938 241.441406 C 238.816406 235.941406 239.359375 230.304688 237.742188 224.902344 Z M 237.742188 224.902344 " fill-opacity="1" fill-rule="nonzero"/><path fill="#ceaa72" d="M 245.417969 245.199219 C 246.421875 239.417969 247.449219 233.527344 248.488281 227.5625 C 249.480469 221.941406 250.453125 216.597656 251.546875 211.4375 C 253.65625 216.3125 253.265625 221.871094 251.902344 227.125 C 250.574219 232.390625 248.902344 238.371094 247.324219 243.992188 Z M 245.417969 245.199219 " fill-opacity="1" fill-rule="nonzero"/><path fill="#ceaa72" d="M 262.003906 222.6875 C 261.988281 222.410156 262.125 221.925781 262.148438 221.824219 C 262.289062 221.210938 262.394531 220.585938 262.53125 219.972656 C 262.769531 218.734375 263.101562 217.550781 263.328125 216.320312 C 263.566406 215.097656 263.867188 213.898438 264.128906 212.691406 C 264.371094 211.476562 264.640625 210.277344 264.933594 209.085938 C 265.996094 204.285156 267.085938 199.535156 268.234375 194.746094 C 269.210938 190.921875 270.03125 187.0625 271.101562 183.15625 C 273.074219 189.5625 273.140625 196.765625 271.234375 203.394531 C 269.769531 208.539062 267.246094 213.222656 264.902344 217.894531 C 264.457031 218.75 264.011719 219.609375 263.605469 220.488281 C 263.269531 221.21875 263.007812 222.285156 262.339844 222.785156 C 262.097656 222.964844 262.011719 222.878906 262.003906 222.6875 Z M 262.003906 222.6875 " fill-opacity="1" fill-rule="nonzero"/><path fill="#ceaa72" d="M 268.996094 224.277344 C 273.886719 218.734375 278.070312 212.105469 280.402344 204.648438 C 279.996094 205.863281 277.964844 207.523438 277.105469 208.453125 C 275.976562 209.699219 274.933594 210.96875 273.839844 212.199219 C 271.664062 214.691406 269.46875 217.203125 267.261719 219.726562 C 265.167969 222.125 263.054688 224.539062 260.9375 226.960938 C 260.09375 227.898438 259.199219 228.832031 258.324219 229.777344 C 257.441406 230.714844 256.636719 231.707031 256.070312 232.84375 C 258.355469 231.921875 260.921875 231.128906 263.054688 229.667969 C 265.175781 228.316406 266.941406 226.5 268.703125 224.617188 Z M 268.996094 224.277344 " fill-opacity="1" fill-rule="nonzero"/><path fill="#ceaa72" d="M 254.101562 235.34375 C 256.46875 230.292969 256.101562 224.609375 255.511719 219.433594 C 255.410156 218.15625 255.210938 216.828125 255.113281 215.550781 C 255.058594 214.90625 255.035156 214.28125 254.996094 213.644531 C 254.945312 213.007812 254.921875 212.375 254.914062 211.761719 C 254.914062 211.144531 254.9375 210.53125 254.988281 209.9375 C 255.027344 209.332031 255.066406 208.730469 255.160156 208.144531 C 255.34375 206.96875 255.6875 205.839844 256.117188 204.71875 C 256.945312 206.484375 257.582031 208.277344 258.179688 210.167969 C 258.492188 211.121094 258.683594 212.058594 258.882812 213.027344 C 259.066406 213.996094 259.230469 214.988281 259.296875 215.980469 C 259.75 222.234375 257.605469 228.578125 254.769531 234.480469 Z M 254.101562 235.34375 " fill-opacity="1" fill-rule="nonzero"/><g clip-path="url(#id1)"><path fill="#ceaa72" d="M 252.589844 237.75 C 253.808594 238.671875 255.289062 238.972656 256.867188 238.894531 C 258.410156 238.789062 260.035156 238.28125 261.542969 237.679688 C 269.675781 234.382812 276.914062 228.113281 283.304688 220.734375 C 278.339844 224.117188 273.308594 227.167969 268.351562 229.921875 C 263.335938 232.644531 258.347656 235.042969 253.441406 237.140625 Z M 252.589844 237.75 " fill-opacity="1" fill-rule="nonzero"/></g><path fill="#ceaa72" d="M 246.535156 245.253906 C 248.328125 246.414062 250.398438 247.054688 252.613281 247.238281 C 254.789062 247.382812 257.082031 247.039062 259.296875 246.300781 C 263.644531 244.753906 267.683594 241.703125 271.117188 238.101562 C 263.285156 241.941406 255.128906 243.855469 247.324219 244 Z M 246.535156 245.253906 " fill-opacity="1" fill-rule="nonzero"/><path fill="#ceaa72" d="M 259.550781 249.90625 C 263.765625 250.3125 268.035156 251.265625 272.429688 249.429688 C 269.460938 251.421875 266.304688 252.414062 263.085938 252.8125 C 259.917969 253.257812 256.691406 253.128906 253.632812 253.066406 C 250.996094 252.996094 248.328125 252.914062 245.660156 252.84375 C 245.261719 252.828125 243.613281 252.835938 242.144531 252.703125 C 240.679688 252.566406 239.398438 252.28125 239.589844 251.796875 C 239.765625 251.359375 241.0625 251.082031 242.464844 250.875 C 243.867188 250.675781 245.316406 250.476562 245.761719 250.414062 C 246.820312 250.246094 247.90625 250.113281 249.003906 250.007812 C 250.078125 249.890625 251.15625 249.804688 252.253906 249.746094 C 253.464844 249.691406 254.699219 249.683594 255.917969 249.707031 C 257.121094 249.730469 258.339844 249.796875 259.550781 249.90625 Z M 259.550781 249.90625 " fill-opacity="1" fill-rule="nonzero"/><path fill="#ceaa72" d="M 228.621094 259.15625 C 233.351562 257.140625 238.6875 256.527344 244.089844 256.679688 C 246.75 256.726562 249.472656 257.027344 252.125 257.332031 C 254.804688 257.65625 257.535156 258.101562 260.203125 258.464844 C 253.113281 262 245.378906 262.769531 238.753906 261.085938 C 236.847656 260.59375 234.945312 259.964844 233.050781 259.554688 C 231.136719 259.117188 229.320312 259.019531 227.496094 259.554688 C 227.871094 259.417969 228.253906 259.308594 228.621094 259.15625 Z M 228.621094 259.15625 " fill-opacity="1" fill-rule="nonzero"/><path fill="#ceaa72" d="M 211.742188 266.859375 C 218.949219 269.796875 227.210938 271.296875 235.902344 270.921875 C 244.574219 270.542969 253.671875 268.320312 262.410156 264.152344 C 254.753906 265.5 247.203125 265.890625 240.027344 265.5 C 237.644531 265.414062 235.207031 265.128906 232.851562 265.492188 C 230.109375 265.84375 227.511719 266.96875 224.796875 267.144531 C 220.640625 267.484375 216.585938 265.667969 212.785156 266.589844 Z M 211.742188 266.859375 " fill-opacity="1" fill-rule="nonzero"/><path fill="#ceaa72" d="M 228.515625 228.636719 C 228.644531 229.199219 228.582031 230.960938 228.453125 232.804688 C 228.40625 233.734375 228.292969 234.628906 228.199219 235.359375 C 228.101562 236.105469 228.03125 236.679688 228.007812 236.902344 C 227.863281 238.75 227.488281 240.488281 227.066406 242.308594 C 226.859375 243.246094 226.367188 244.707031 225.730469 246.570312 C 225.417969 247.515625 224.996094 248.453125 224.574219 249.492188 C 224.144531 250.519531 223.683594 251.613281 223.148438 252.636719 C 222.628906 253.679688 222.089844 254.742188 221.539062 255.757812 C 220.964844 256.734375 220.402344 257.6875 219.851562 258.570312 C 219.570312 259.003906 219.308594 259.425781 219.054688 259.832031 C 218.785156 260.210938 218.527344 260.570312 218.296875 260.894531 C 217.820312 261.554688 217.398438 262.101562 217.078125 262.5 C 216.808594 262.839844 216.058594 263.929688 215.207031 264.800781 C 214.371094 265.691406 213.46875 266.445312 213.023438 266.160156 C 212.625 265.898438 213.03125 264.839844 213.558594 263.761719 C 214.082031 262.691406 214.730469 261.601562 214.914062 261.253906 C 215.351562 260.386719 216.171875 258.886719 217.125 257.171875 C 217.613281 256.328125 218.089844 255.320312 218.59375 254.351562 C 219.085938 253.351562 219.613281 252.382812 220.058594 251.328125 C 220.503906 250.3125 220.957031 249.285156 221.386719 248.300781 C 221.800781 247.316406 222.152344 246.347656 222.488281 245.492188 C 223.164062 243.792969 223.617188 242.339844 223.921875 241.554688 C 224.265625 240.664062 224.679688 239.609375 225.066406 238.441406 C 225.472656 237.28125 225.929688 236.105469 226.3125 234.875 C 227.140625 232.496094 227.847656 230.152344 228.515625 228.636719 Z M 228.515625 228.636719 " fill-opacity="1" fill-rule="nonzero"/><path fill="#ceaa72" d="M 239.382812 244.53125 C 239.628906 243.523438 239.875 242.515625 240.121094 241.507812 C 240.355469 240.503906 240.585938 239.503906 240.808594 238.496094 C 241.308594 236.550781 241.683594 234.542969 242.203125 232.683594 C 243.09375 228.859375 244.121094 225.277344 245.429688 221.863281 C 245.371094 223.007812 245.332031 224.132812 245.300781 225.269531 C 245.253906 226.386719 245.171875 227.476562 245.101562 228.605469 C 245.046875 229.738281 244.925781 230.851562 244.78125 231.992188 C 244.640625 233.136719 244.503906 234.351562 244.242188 235.550781 C 243.976562 236.765625 243.636719 238.210938 243.171875 239.585938 C 242.710938 240.957031 242.273438 242.394531 241.898438 243.632812 L 240.761719 247.324219 C 240.65625 247.660156 240.1875 248.761719 239.75 249.820312 C 239.292969 250.875 238.871094 251.84375 238.871094 251.84375 C 238.316406 251.996094 238.464844 250.328125 238.714844 248.558594 C 238.839844 247.667969 238.992188 246.761719 239.128906 246.03125 C 239.246094 245.300781 239.335938 244.722656 239.382812 244.53125 Z M 239.382812 244.53125 " fill-opacity="1" fill-rule="nonzero"/><path fill="#ceaa72" d="M 209.457031 251.390625 C 209.199219 252.136719 208.769531 253.636719 208.140625 255.410156 C 207.503906 257.148438 206.707031 259.316406 205.792969 261.339844 C 204.867188 263.339844 203.878906 265.40625 202.996094 266.929688 C 202.113281 268.46875 201.371094 269.621094 201.050781 269.988281 C 201.277344 269.730469 201.953125 269.558594 202.261719 269.382812 C 202.375 269.320312 202.742188 268.992188 203.21875 268.535156 C 203.449219 268.304688 203.722656 268.042969 204.007812 267.753906 C 204.277344 267.453125 204.566406 267.136719 204.859375 266.820312 C 206.007812 265.523438 207.113281 264.199219 207.378906 263.777344 C 207.640625 263.355469 208.300781 262.261719 208.921875 261.171875 C 209.542969 260.085938 210.132812 259.011719 210.339844 258.519531 C 210.730469 257.664062 211.25 256.902344 211.550781 256.035156 C 211.871094 255.203125 213.496094 253.089844 215.183594 250.222656 C 216.003906 248.746094 216.886719 247.167969 217.574219 245.347656 C 217.921875 244.453125 218.257812 243.554688 218.527344 242.609375 C 218.792969 241.648438 219.015625 240.679688 219.175781 239.710938 C 219.445312 238.25 219.40625 236.632812 219.355469 235.105469 C 217.523438 237.535156 215.4375 239.5625 213.71875 242.332031 C 212.855469 243.601562 212.117188 245.09375 211.382812 246.5625 C 210.660156 248.074219 210.03125 249.722656 209.457031 251.390625 Z M 209.457031 251.390625 " fill-opacity="1" fill-rule="nonzero"/><g clip-path="url(#id2)"><path fill="#ceaa72" d="M 209.980469 275.339844 C 211.980469 277.125 214.332031 278.53125 216.933594 279.617188 C 218.234375 280.15625 219.5625 280.523438 220.941406 280.816406 C 222.3125 281.09375 223.730469 281.292969 225.101562 281.277344 C 226.503906 281.285156 227.839844 281.292969 229.148438 281.300781 C 230.460938 281.292969 231.75 281.277344 233.027344 281.269531 C 235.628906 281.300781 238.179688 281.230469 241.03125 281.277344 C 234.4375 279.933594 228.167969 278.046875 221.898438 276.601562 C 219.613281 276.035156 217.316406 275.542969 215.335938 274.535156 C 214.410156 274.042969 211.320312 272.40625 208.746094 271.003906 C 206.148438 269.574219 204.046875 268.535156 204.453125 269.75 C 204.597656 270.160156 205.71875 271.382812 206.953125 272.582031 C 208.207031 273.78125 209.558594 274.964844 209.980469 275.339844 Z M 209.980469 275.339844 " fill-opacity="1" fill-rule="nonzero"/></g><g clip-path="url(#id3)"><path fill="#ceaa72" d="M 175.882812 272.703125 C 175.867188 272.703125 175.851562 272.703125 175.832031 272.703125 C 128.847656 269.496094 92.03125 230.152344 92.03125 183.148438 C 92.03125 133.652344 132.429688 93.378906 182.085938 93.378906 C 204.757812 93.378906 226.414062 101.804688 243.078125 117.105469 C 259.636719 132.308594 269.84375 152.953125 271.792969 175.222656 C 271.824219 175.574219 271.5625 175.882812 271.210938 175.90625 C 270.871094 175.9375 270.550781 175.675781 270.527344 175.328125 C 268.597656 153.375 258.546875 133.023438 242.21875 118.023438 C 225.792969 102.953125 204.4375 94.648438 182.085938 94.648438 C 133.132812 94.648438 93.304688 134.347656 93.304688 183.148438 C 93.304688 229.492188 129.59375 268.269531 175.929688 271.4375 C 176.28125 271.464844 176.542969 271.765625 176.519531 272.113281 C 176.496094 272.449219 176.214844 272.703125 175.882812 272.703125 Z M 175.882812 272.703125 " fill-opacity="1" fill-rule="nonzero"/></g><g fill="#ceaa72" fill-opacity="1"><g transform="translate(130.984902, 196.155573)"><g><path d="M 1.800781 0 L 17.941406 0 L 17.941406 -0.601562 C 12.78125 -0.601562 12.421875 -4.859375 12.421875 -16.679688 L 12.421875 -58.441406 C 16.078125 -59.761719 18.960938 -60.359375 23.398438 -60.359375 C 34.558594 -60.359375 41.578125 -54.238281 41.578125 -44.28125 C 41.578125 -37.078125 36.71875 -29.699219 29.21875 -29.699219 C 23.640625 -29.699219 20.878906 -33.121094 17.339844 -33.121094 C 16.261719 -33.121094 15.238281 -32.519531 15.238281 -31.078125 C 15.238281 -27 21.601562 -26.761719 27.421875 -18 C 36.898438 -3.78125 38.578125 0 41.339844 0 L 50.519531 0 L 50.519531 -0.601562 C 43.679688 -0.601562 38.101562 -11.28125 33.359375 -18.660156 C 28.5 -26.21875 15.839844 -27.058594 15.839844 -30.960938 C 15.839844 -32.339844 16.859375 -32.519531 17.578125 -32.519531 C 20.101562 -32.519531 23.941406 -28.679688 29.578125 -28.679688 C 40.019531 -28.679688 46.738281 -36.121094 46.738281 -44.339844 C 46.738281 -54.121094 39.601562 -61.199219 26.820312 -61.199219 C 19.859375 -61.199219 15.601562 -60 9 -60 L 1.800781 -60 L 1.800781 -59.398438 C 6.960938 -59.398438 7.320312 -55.140625 7.320312 -43.320312 L 7.320312 -16.679688 C 7.320312 -4.859375 6.960938 -0.601562 1.800781 -0.601562 Z M 1.800781 0 "/></g></g></g><g fill="#ceaa72" fill-opacity="1"><g transform="translate(183.304848, 196.155573)"><g><path d="M 1.800781 -10.5 C 1.800781 -4.261719 5.761719 1.199219 12.71875 1.199219 C 24.660156 1.199219 31.679688 -9.359375 31.679688 -23.941406 C 31.679688 -26.820312 31.558594 -29.21875 31.320312 -31.140625 L 38.761719 -11.519531 C 41.039062 -5.460938 41.339844 -0.601562 32.878906 -0.601562 L 32.878906 0 L 52.558594 0 L 52.558594 -0.601562 C 48.898438 -0.601562 46.980469 -3.898438 44.339844 -10.5 L 25.140625 -61.199219 L 24.539062 -61.199219 C 20.761719 -51.238281 18.539062 -45.300781 14.878906 -35.640625 C 14.28125 -34.078125 14.578125 -32.460938 16.261719 -32.460938 C 19.679688 -32.460938 21.480469 -38.761719 24.359375 -38.761719 C 25.140625 -38.761719 25.800781 -38.28125 25.800781 -37.140625 C 25.800781 -30.898438 1.800781 -25.261719 1.800781 -10.5 Z M 6.898438 -11.640625 C 6.898438 -26.460938 26.460938 -28.980469 26.460938 -37.019531 C 26.460938 -38.578125 25.621094 -39.359375 24.480469 -39.359375 C 21.300781 -39.359375 19.078125 -33.058594 16.320312 -33.058594 C 15.359375 -33.058594 14.878906 -33.78125 15.660156 -35.878906 L 22.558594 -54.238281 L 29.820312 -35.101562 C 30.898438 -31.558594 31.078125 -28.261719 31.078125 -23.820312 C 31.078125 -13.980469 26.339844 -1.679688 16.320312 -1.679688 C 10.441406 -1.679688 6.898438 -6 6.898438 -11.640625 Z M 6.898438 -11.640625 "/></g></g></g><g fill="#ceaa72" fill-opacity="1"><g transform="translate(153.047865, 220.515)"><g><path d="M 1.90625 0 L 1.90625 -14 L 5.59375 -14 C 7.15625 -14 8.515625 -13.707031 9.671875 -13.125 C 10.835938 -12.550781 11.734375 -11.734375 12.359375 -10.671875 C 12.992188 -9.609375 13.3125 -8.382812 13.3125 -7 C 13.3125 -5.613281 12.992188 -4.390625 12.359375 -3.328125 C 11.734375 -2.265625 10.835938 -1.441406 9.671875 -0.859375 C 8.515625 -0.285156 7.15625 0 5.59375 0 Z M 5.59375 -1.5 C 6.832031 -1.5 7.910156 -1.722656 8.828125 -2.171875 C 9.742188 -2.628906 10.441406 -3.273438 10.921875 -4.109375 C 11.410156 -4.941406 11.65625 -5.90625 11.65625 -7 C 11.65625 -8.09375 11.410156 -9.054688 10.921875 -9.890625 C 10.441406 -10.722656 9.742188 -11.363281 8.828125 -11.8125 C 7.910156 -12.269531 6.832031 -12.5 5.59375 -12.5 L 3.5 -12.5 L 3.5 -1.5 Z M 5.59375 -1.5 "/></g></g></g><g fill="#ceaa72" fill-opacity="1"><g transform="translate(168.46218, 220.515)"><g><path d="M 1.90625 0 L 1.90625 -14 L 5.59375 -14 C 7.15625 -14 8.515625 -13.707031 9.671875 -13.125 C 10.835938 -12.550781 11.734375 -11.734375 12.359375 -10.671875 C 12.992188 -9.609375 13.3125 -8.382812 13.3125 -7 C 13.3125 -5.613281 12.992188 -4.390625 12.359375 -3.328125 C 11.734375 -2.265625 10.835938 -1.441406 9.671875 -0.859375 C 8.515625 -0.285156 7.15625 0 5.59375 0 Z M 5.59375 -1.5 C 6.832031 -1.5 7.910156 -1.722656 8.828125 -2.171875 C 9.742188 -2.628906 10.441406 -3.273438 10.921875 -4.109375 C 11.410156 -4.941406 11.65625 -5.90625 11.65625 -7 C 11.65625 -8.09375 11.410156 -9.054688 10.921875 -9.890625 C 10.441406 -10.722656 9.742188 -11.363281 8.828125 -11.8125 C 7.910156 -12.269531 6.832031 -12.5 5.59375 -12.5 L 3.5 -12.5 L 3.5 -1.5 Z M 5.59375 -1.5 "/></g></g></g><g fill="#ceaa72" fill-opacity="1"><g transform="translate(183.876496, 220.515)"><g><path d="M 8.21875 0.203125 C 6.925781 0.203125 5.734375 -0.113281 4.640625 -0.75 C 3.546875 -1.394531 2.679688 -2.269531 2.046875 -3.375 C 1.410156 -4.488281 1.09375 -5.695312 1.09375 -7 C 1.09375 -8.300781 1.410156 -9.503906 2.046875 -10.609375 C 2.679688 -11.722656 3.546875 -12.597656 4.640625 -13.234375 C 5.734375 -13.878906 6.925781 -14.203125 8.21875 -14.203125 C 9.695312 -14.203125 10.992188 -13.796875 12.109375 -12.984375 C 13.234375 -12.179688 14.078125 -11.085938 14.640625 -9.703125 L 12.9375 -9.703125 C 12.46875 -10.617188 11.820312 -11.347656 11 -11.890625 C 10.1875 -12.429688 9.257812 -12.703125 8.21875 -12.703125 C 7.226562 -12.703125 6.3125 -12.445312 5.46875 -11.9375 C 4.632812 -11.4375 3.972656 -10.75 3.484375 -9.875 C 3.003906 -9.007812 2.765625 -8.050781 2.765625 -7 C 2.765625 -5.945312 3.003906 -4.984375 3.484375 -4.109375 C 3.972656 -3.242188 4.632812 -2.554688 5.46875 -2.046875 C 6.3125 -1.546875 7.226562 -1.296875 8.21875 -1.296875 C 9.300781 -1.296875 10.253906 -1.566406 11.078125 -2.109375 C 11.898438 -2.648438 12.546875 -3.378906 13.015625 -4.296875 L 14.71875 -4.296875 C 14.15625 -2.910156 13.3125 -1.8125 12.1875 -1 C 11.0625 -0.195312 9.738281 0.203125 8.21875 0.203125 Z M 8.21875 0.203125 "/></g></g></g><g fill="#ceaa72" fill-opacity="1"><g transform="translate(200.390383, 220.515)"><g><path d="M 13 0 L 11.28125 0 L 9.78125 -3.796875 L 3.578125 -3.796875 L 2.078125 0 L 0.40625 0 L 6.09375 -14 L 7.296875 -14 Z M 9.1875 -5.296875 L 6.6875 -11.625 L 4.1875 -5.296875 Z M 9.1875 -5.296875 "/></g></g></g></svg>